<svg xmlns="http://www.w3.org/2000/svg" xml:space="preserve" width="655.359" height="655.359" style="shape-rendering:geometricPrecision;text-rendering:geometricPrecision;image-rendering:optimizeQuality;fill-rule:evenodd;clip-rule:evenodd" viewBox="0 0 6.827 6.827"><defs><style>.fil1{fill:none}.fil2,.fil3{fill:#fffffe}.fil2{fill-rule:nonzero}</style></defs><path style="fill:#424242" d="M0 0h6.827v6.827H0z"/><g id="Layer_x0020_1"><g id="_465231224"><path id="_465231296" class="fil1" d="M0 0h6.827v6.827H0z"/><path id="_465231152" class="fil1" d="M.853.853h5.12v5.12H.853z"/></g><path class="fil2" d="m5.426 3.37-.834-.313-.04-.027-.82-.87a.087.087 0 0 0-.062-.027H1.797a.086.086 0 0 0-.04.01.085.085 0 0 0-.03.027l-.623.902v.003a.095.095 0 0 0-.008.018l-.002.003-.003.016a.156.156 0 0 0-.002.017v.8a.084.084 0 0 0 .084.084h.394a.522.522 0 0 1 .732-.166c.065.042.119.1.159.166h1.91a.522.522 0 0 1 .733-.166c.065.042.12.1.16.166h.392a.084.084 0 0 0 .085-.085v-.107a.48.48 0 0 0-.312-.451zm-.736-.503.81.304h.001a.694.694 0 0 1 .45.65v.107a.297.297 0 0 1-.298.298h-.528l-.028-.065a.308.308 0 0 0-.566 0l-.027.065H2.323l-.028-.065a.308.308 0 0 0-.566 0l-.027.065h-.529a.297.297 0 0 1-.297-.298V3.105a.364.364 0 0 1 .017-.081l.001-.004a.266.266 0 0 1 .034-.067v-.001l.624-.904a.298.298 0 0 1 .245-.128H3.67a.298.298 0 0 1 .217.093l.803.854z"/><path class="fil2" d="M1.003 2.899h3.724v.213H1.003z"/><path class="fil2" d="M2.72 2.027v1.008h-.214V2.027z"/><circle class="fil3" cx="2.012" cy="4.28" r=".105"/><path class="fil2" d="M2.012 3.76a.518.518 0 0 1 .368.888.518.518 0 0 1-.888-.368.518.518 0 0 1 .52-.52zm.217.303a.306.306 0 0 0-.523.217.306.306 0 0 0 .523.217.306.306 0 0 0 0-.434z"/><circle class="fil3" cx="4.814" cy="4.28" r=".105"/><path class="fil2" d="M4.814 3.76a.518.518 0 0 1 .368.888.518.518 0 0 1-.888-.368.518.518 0 0 1 .52-.52zm.217.303a.306.306 0 0 0-.523.217.306.306 0 0 0 .523.217.306.306 0 0 0 0-.434z"/></g></svg>