<svg width="2854" height="965" viewBox="0 0 2854 965" fill="none" xmlns="http://www.w3.org/2000/svg">
<path fill-rule="evenodd" clip-rule="evenodd" d="M1426.76 964.576C2214.75 964.576 2853.53 748.664 2853.53 482.288C2853.53 215.926 2214.75 0 1426.76 0C638.788 0 2.73127e-07 215.926 2.73127e-07 482.288C-0.0152522 748.65 638.788 964.576 1426.76 964.576Z" fill="black"/>
<path fill-rule="evenodd" clip-rule="evenodd" d="M1426.47 955.001C2198.78 955.001 2835.25 743.36 2835.25 482.288C2835.25 221.23 2198.78 9.60352 1426.47 9.60352C654.177 9.60352 14.7949 221.23 14.7949 482.288C14.7949 743.36 654.177 955.001 1426.47 955.001Z" fill="white"/>
<path fill-rule="evenodd" clip-rule="evenodd" d="M2753.68 601.508C2690.76 664.346 2614.47 705.645 2535.7 738.988C2303.85 836.393 2046.76 882.385 1783.21 914.008C1361.62 962.506 927.654 919.05 548.173 822.505C378.749 776.936 209.813 716.225 89.4403 583.394C64.1823 550.066 34.9433 516.767 36.4381 473.748L41.8832 459.408C43.3779 465.747 46.8403 472.48 53.7649 476.284C67.6446 482.186 88.9523 475.861 97.3716 489.355C103.32 504.948 98.8511 524.359 109.757 538.247C143.937 601.945 212.299 667.727 287.097 701.026C487.239 803.939 714.623 850.31 947.467 885.751C1283.83 935.925 1670.75 927.939 2000.17 870.581C2189.93 838.535 2376.18 799.305 2543.63 720.874C2622.9 686.715 2688.29 618.383 2727.91 553.024C2743.79 525.19 2756.67 496.103 2756.16 461.944C2757.17 458.14 2759.14 452.661 2765.1 452.238C2779.45 448.012 2802.73 457.718 2806.72 439.167L2809.19 431.574C2843.85 493.115 2801.72 555.531 2753.68 601.508Z" fill="black"/>
<path fill-rule="evenodd" clip-rule="evenodd" d="M2737.83 458.111C2739.32 515.878 2704.64 561.855 2669.47 606.987C2616.95 668.557 2542.14 708.166 2466.37 733.071C2534.22 698.49 2614.99 657.161 2659.08 592.633C2687.33 552.135 2715.56 511.229 2714.07 460.21C2720.99 458.957 2729.9 459.379 2737.83 458.111ZM135.503 488.904C147.4 563.138 206.35 626.806 281.148 673.192L334.654 706.068C239.036 671.487 141.451 592.648 115.69 506.202L113.204 485.508L135.503 488.904Z" fill="black"/>
<path fill-rule="evenodd" clip-rule="evenodd" d="M1425.02 887.951C2124.07 887.951 2690.76 701.04 2690.76 470.498C2690.76 239.941 2124.07 53.0303 1425.02 53.0303C725.986 53.0303 159.281 239.941 159.281 470.498C159.281 701.04 725.986 887.951 1425.02 887.951Z" fill="black"/>
<path fill-rule="evenodd" clip-rule="evenodd" d="M1423.72 855.308C2100.57 855.308 2649.27 683.932 2649.27 472.538C2649.27 261.145 2100.57 89.7686 1423.72 89.7686C746.882 89.7686 198.175 261.145 198.175 472.538C198.175 683.932 746.882 855.308 1423.72 855.308Z" fill="white"/>
<path fill-rule="evenodd" clip-rule="evenodd" d="M1423.72 823.481C2079.91 823.481 2611.9 666.372 2611.9 472.538C2611.9 278.72 2079.91 121.581 1423.72 121.581C767.518 121.581 235.543 278.72 235.543 472.538C235.528 666.372 767.518 823.481 1423.72 823.481Z" fill="black"/>
<path fill-rule="evenodd" clip-rule="evenodd" d="M1255.28 196.778L1450.39 221.376C1550.18 234.055 1666.24 236.751 1762.88 215.227C1773.72 214.848 1787.72 211.001 1796.3 218.302C1800.83 221.755 1801.71 226.375 1800.38 231.373C1795.85 250.216 1771.94 262.894 1753.85 272.119C1668.95 313.637 1549.72 295.567 1458.48 277.496L1310.81 244.431H1310.37C1309.01 249.808 1311.71 256.73 1308.11 261.35C1250.76 290.947 1197.91 339.387 1164.95 387.842C1197.47 386.691 1230.89 385.539 1262.05 379.769C1257.53 357.093 1266.56 335.948 1288.24 321.725C1299.98 315.182 1314.88 311.349 1328.88 314.424C1338.83 317.499 1347.4 325.951 1350.12 334.418C1355.09 351.716 1346.94 367.863 1332.5 379.783C1322.57 387.084 1311.73 392.855 1299.98 396.309L1300.44 397.46C1308.57 403.61 1318.96 408.229 1325.27 415.924C1325.48 417.166 1325.38 418.437 1324.99 419.638C1324.6 420.84 1323.92 421.938 1323.01 422.846C1319.41 426.3 1314.88 426.3 1309.93 426.693C1293.21 425.542 1283.28 411.319 1271.54 401.715C1230.89 407.093 1188.88 410.546 1146.88 413.636L1120.23 445.929L1047.96 542.022C991.058 615.091 905.705 700.05 791.449 688.115C738.157 683.51 682.15 650.065 666.806 605.094C646.032 548.566 679.908 496.278 731.843 462.076C751.259 450.534 774.29 443.248 799.137 445.929C804.551 447.08 809.966 450.534 812.223 455.154C813.581 459.001 813.581 463.999 810.881 466.695C788.75 484.766 758.489 495.156 743.13 519.347C730.485 537.825 726.428 566.65 741.787 585.1C765.718 612.788 810.423 617 846.556 607.017C943.653 578.178 1012.75 489.75 1074.18 422.103C1039.87 425.177 1005.97 430.934 978.887 449.398C976.172 450.549 971.657 451.321 968.5 449.776C964.427 447.853 963.985 444.006 963.085 440.552C965.342 422.875 988.374 415.574 1004.18 409.803C1034.44 399.806 1068.31 397.11 1100.81 392.126C1147.33 333.31 1214.63 274.101 1286.89 241.035C1169.92 217.587 996.945 183.356 909.778 279.872C898.491 293.716 890.804 311.393 897.133 329.07C904.363 342.141 919.707 349.442 935.981 350.215C981.129 350.987 1012.3 318.3 1042.11 291.005C1045.27 289.082 1049.34 287.158 1053.85 288.309C1057.47 289.082 1059.27 292.55 1060.62 294.838C1061.54 322.148 1040.29 342.506 1021.79 363.272C983.844 399.019 931.909 423.239 875.46 407.865C845.199 399.792 823.525 372.497 820.81 346.353C814.038 293.687 853.328 248.322 905.705 224.495C985.643 185.28 1087.71 180.66 1185.71 189.885L1255.28 196.778Z" fill="white"/>
<path fill-rule="evenodd" clip-rule="evenodd" d="M1977.89 618.121C1974.73 625.437 1969.32 634.254 1974.73 642.72C1977.45 645.795 1981.05 649.643 1986.02 650.4C2005.44 651.931 2020.34 641.948 2035.68 632.723C2062.79 613.516 2087.63 589.296 2112.92 567.743C2117.89 564.668 2122.39 560.457 2128.71 561.594C2135.95 563.896 2145.42 568.909 2147.24 576.225L2146.31 579.664C2095.76 625.801 2043.8 689.616 1967.93 695.766C1947.62 696.931 1930.46 690.388 1918.27 676.923C1910.14 667.698 1908.77 655.399 1910.14 643.478C1870.85 673.076 1822.06 704.611 1767.42 684.238C1735.36 668.106 1725.42 637.737 1727.69 606.594C1729.51 596.568 1733.56 587.358 1737.16 577.755C1705.1 595.796 1669.43 623.091 1626.96 607.731C1606.65 599.643 1595.8 581.602 1594.46 563.532C1593.09 557.761 1594.9 551.232 1594.9 545.855L1491.02 685.783L1423.28 685.419C1421.92 684.646 1419.67 683.481 1420.12 681.951L1421.92 676.573L1530.31 530.102C1536.18 518.545 1546.13 504.337 1537.52 490.886C1528.97 484.343 1517.21 490.114 1508.62 492.824C1463.01 514.713 1427.78 556.245 1396.16 590.856C1353.72 640.433 1295.45 703.11 1214.16 690.417C1175.77 686.57 1149.58 653.504 1141.45 624.694C1141.45 623.528 1140.99 622.362 1140.09 621.983C1121.57 635.449 1107.57 654.291 1087.26 663.88C1084 664.653 1080.59 664.653 1077.33 663.88C1069.2 658.124 1066.94 650.051 1065.12 641.963C1068.3 631.966 1081.38 628.133 1089.07 620.439C1145.52 569.288 1161.78 493.189 1243.97 462.047C1264.29 453.973 1285.96 448.975 1310.37 449.354C1317.14 449.354 1323.01 454.352 1325.71 459.73C1328.3 463.387 1331.13 469.144 1328.43 473.574C1320.3 480.481 1308.1 480.481 1298.62 484.328C1252.1 502.399 1206.94 542.766 1202.88 586.994C1201.08 605.443 1207.4 623.878 1227.27 633.904C1252.1 644.659 1281.46 635.434 1301.34 621.211C1337.47 593.144 1355.07 558.169 1360.05 518.545C1361.4 502.413 1355.07 488.948 1350.56 474.74C1350.56 465.136 1361.85 457.82 1370.89 453.973C1377.66 451.277 1388.51 448.975 1395.28 453.201C1411.1 467.045 1413.79 485.873 1414.69 504.716C1414.69 510.093 1415.15 515.471 1413.79 520.484C1458.5 487.811 1496.01 430.132 1561.48 437.827C1577.74 439.75 1593.09 452.05 1596.73 465.894C1599.42 475.118 1598.07 486.631 1596.26 495.491C1622.02 466.273 1656.34 437.827 1701.5 443.976C1718.66 446.279 1736.26 458.957 1740.79 473.574C1746.21 490.872 1739.42 507.776 1725.42 520.076C1715.5 527.391 1704.66 531.996 1691.1 530.859C1679.81 529.694 1669.41 525.482 1663.1 516.228C1657.22 508.17 1657.22 495.112 1663.1 487.389C1648.19 488.919 1638.69 503.55 1634.19 514.319C1629.22 528.921 1622.01 549.294 1636.91 562.366C1646.82 574.695 1666.25 570.454 1680.26 568.516C1770.14 542.387 1823.87 439.357 1931.36 450.505C1950.77 452.428 1970.2 459.351 1979.68 475.876C1983.31 482.784 1986.46 489.327 1987.81 497.021L2111.11 333.252L2186.99 337.857L1977.89 618.121Z" fill="white"/>
<path fill-rule="evenodd" clip-rule="evenodd" d="M1944.02 498.945C1953.04 514.319 1943.57 531.996 1936.33 545.854L1949.89 550.066C1923.7 582.738 1896.6 625.043 1850.06 639.631C1839.69 642.706 1824.31 643.478 1815.3 637.722C1800.4 628.104 1799.04 611.563 1802.2 596.568C1815.3 551.232 1857.76 497.4 1916.47 488.554C1928.2 487.024 1937.67 491.644 1944.02 498.945ZM1322.98 331.474C1328.43 335.263 1326.95 342.432 1325.96 347.489C1320.51 362.674 1302.18 370.689 1286.31 374.901C1282.85 357.18 1287.81 338.629 1306.63 329.769C1311.59 328.093 1319.02 328.093 1322.98 331.474Z" fill="black"/>
</svg>
